<svg id="Group_20510" data-name="Group 20510" xmlns="http://www.w3.org/2000/svg" width="24" height="24" viewBox="0 0 24 24">
  <g id="Group_20509" data-name="Group 20509">
    <rect id="Rectangle_22742" data-name="Rectangle 22742" width="24" height="24" fill="#d2cccc" opacity="0"/>
    <g id="Group_1" data-name="Group 1" transform="translate(1 3)">
      <ellipse id="Ellipse_1230" data-name="Ellipse 1230" cx="1.913" cy="2.25" rx="1.913" ry="2.25" transform="translate(2.87 13.5)" fill="none" stroke="#f9f9f9" stroke-width="1.5"/>
      <ellipse id="Ellipse_1231" data-name="Ellipse 1231" cx="1.913" cy="2.25" rx="1.913" ry="2.25" transform="translate(15.113 13.5)" fill="none" stroke="#f9f9f9" stroke-width="1.5"/>
      <path id="Path_30178" data-name="Path 30178" d="M15.826,7.938V5.176a1.1,1.1,0,0,0-1-1.176H2A1.1,1.1,0,0,0,1,5.176V15.813a.525.525,0,0,0,.478.562h0M15.826,7.938l.043,8.438m-.043-8.438h2.391M20.7,19.4H22a1.1,1.1,0,0,0,1-1.176v-4.1M15.462,19.4H13.521m-5.072,0h1.639m-6.823,0h-1.7a.1.1,0,0,1-.089-.1V16.375m0,0h8.609m5.739,0h.043M10.087,19.4V16.375m0,3.022h3.434m-3.434-3.022h3.434m0,3.022V16.375m0,0h2.349m2.348-8.438h1.435l2,2.347A5.953,5.953,0,0,1,23,14.125h0M18.217,7.938v5.011a1.1,1.1,0,0,0,1,1.176H23" transform="translate(-1 -4)" fill="none" stroke="#f9f9f9" stroke-linecap="round" stroke-linejoin="round" stroke-width="1.5"/>
      <path id="Path_30179" data-name="Path 30179" d="M6,9.823,7.429,11.7,11,7" transform="translate(-1 -3.472)" fill="none" stroke="#f9f9f9" stroke-linecap="round" stroke-linejoin="round" stroke-width="1.5"/>
    </g>
  </g>
</svg>
