
<svg xmlns="http://www.w3.org/2000/svg" width="27" height="27" viewBox="0 0 27 27">
  <g id="Group_18610" data-name="Group 18610" transform="translate(-150 -561)">
    <g id="Group_18609" data-name="Group 18609" transform="translate(152 565)">
      <path id="Path_28691" data-name="Path 28691" d="M12.951,16.148h1.994v2.464H12.951ZM4.309,9.473V7.628H9.524V18.615H4.309ZM10.349,6.8V2.474h7.418V18.612h-2V15.32H12.12v3.292H10.349Zm0-5.969h3.985v.818H10.349ZM9.521,0V5.154H3.481v.828H9.375V6.8H3.481V18.612H0v.828H22.076v-.828H18.6V1.646H15.161V0Z" fill="#002e6d" stroke="#002e6d" stroke-width="0.5"/>
      <rect id="Rectangle_22398" data-name="Rectangle 22398" width="3.532" height="0.828" transform="translate(5.147 9.23)" fill="#002e6d" stroke="#002e6d" stroke-width="0.5"/>
      <rect id="Rectangle_22399" data-name="Rectangle 22399" width="3.532" height="0.828" transform="translate(5.147 11.501)" fill="#002e6d" stroke="#002e6d" stroke-width="0.5"/>
      <rect id="Rectangle_22400" data-name="Rectangle 22400" width="3.532" height="0.828" transform="translate(5.147 13.843)" fill="#002e6d" stroke="#002e6d" stroke-width="0.5"/>
      <rect id="Rectangle_22401" data-name="Rectangle 22401" width="3.532" height="0.828" transform="translate(5.147 16.185)" fill="#002e6d" stroke="#002e6d" stroke-width="0.5"/>
      <rect id="Rectangle_22402" data-name="Rectangle 22402" width="5.644" height="0.828" transform="translate(11.237 10.173)" fill="#002e6d" stroke="#002e6d" stroke-width="0.5"/>
      <rect id="Rectangle_22403" data-name="Rectangle 22403" width="5.644" height="0.828" transform="translate(11.237 7.449)" fill="#002e6d" stroke="#002e6d" stroke-width="0.5"/>
      <rect id="Rectangle_22404" data-name="Rectangle 22404" width="5.644" height="0.828" transform="translate(11.237 4.725)" fill="#002e6d" stroke="#002e6d" stroke-width="0.5"/>
    </g>
    <rect id="Rectangle_22405" data-name="Rectangle 22405" width="27" height="27" transform="translate(150 561)" fill="none"/>
  </g>
</svg>
