<svg id="Component_94_113" data-name="Component 94 – 113" xmlns="http://www.w3.org/2000/svg" xmlns:xlink="http://www.w3.org/1999/xlink" width="22.905" height="23" viewBox="0 0 22.905 23">
  <defs>
    <clipPath id="clip-path">
      <rect id="Rectangle_804" data-name="Rectangle 804" width="22.905" height="23" fill="#002e6d" stroke="#002e6d" stroke-width="0.5"/>
    </clipPath>
  </defs>
  <g id="Group_14786" data-name="Group 14786" clip-path="url(#clip-path)">
    <path id="Path_6039" data-name="Path 6039" d="M1.682,93.457A1.682,1.682,0,0,1,0,91.776V81.662A1.681,1.681,0,0,1,1.682,79.98H9.357a1.681,1.681,0,0,1,1.682,1.682V91.776a1.682,1.682,0,0,1-1.682,1.682Zm0-13.011A1.217,1.217,0,0,0,.466,81.661V91.776a1.217,1.217,0,0,0,1.215,1.215H9.357a1.217,1.217,0,0,0,1.216-1.215V81.662a1.217,1.217,0,0,0-1.215-1.215Z" transform="translate(3.922 -73.399)" fill="#002e6d" stroke="#002e6d" stroke-width="1.2"/>
    <path id="Path_6040" data-name="Path 6040" d="M114.5,12.668a.23.23,0,0,1,0-.461h.437a.993.993,0,0,0,.991-.991V1.682A1.217,1.217,0,0,0,114.718.466h-7.1a.992.992,0,0,0-.991.984.23.23,0,1,1-.461,0A1.454,1.454,0,0,1,107.616,0h7.1a1.682,1.682,0,0,1,1.682,1.682v9.539a1.454,1.454,0,0,1-1.454,1.447H114.5Z" transform="translate(-97.41 2.941)" fill="#002e6d" stroke="#002e6d" stroke-width="1.2"/>
  </g>
</svg>
