<svg xmlns="http://www.w3.org/2000/svg" xmlns:xlink="http://www.w3.org/1999/xlink" width="70" height="70" viewBox="0 0 70 70">
  <defs>
    <clipPath id="driver_inventory_header_icon">
      <rect id="Rectangle_22307" data-name="Rectangle 22307" width="70" height="70" transform="translate(0 -7)" fill="none"/>
    </clipPath>
  </defs>
  <g id="Group_18248" data-name="Group 18248" transform="translate(0 7)">
    <g id="Mask_Group_18247" data-name="Mask Group 18247" clip-path="url(#driver_inventory_header_icon)">
      <path id="Path_28441" data-name="Path 28441" d="M148.175,398.635c0-.1,0-.208,0-.315a15.135,15.135,0,0,0-.03-1.7,12.747,12.747,0,0,0-2.744-6.738l-.732-.956-.11.107-.861-.764a12.832,12.832,0,0,0-8.4-3.176h-.049a12.834,12.834,0,0,0-8.379,3.113l-.874.764.3.293-.719.415-.1.053a1.3,1.3,0,0,0-.336.242l-.023.024a3.722,3.722,0,0,0-.25.3,12.611,12.611,0,0,0-2.508,9.236l0,.018a1.622,1.622,0,0,0,1.125,1.282l.011,0a12.409,12.409,0,0,0,1.689.34c1.465.185,2.956.363,4.4.535l2.52.3.306-.785.253-.693-.291-.448-.013-.019a3.384,3.384,0,0,1-.31-3.554l.362-.671-5.528-5.956-.439-.47,1.454,1.405c1.49,1.441,2.733,2.642,4.035,3.884l.019.017a1.579,1.579,0,0,0,1.62.247l.023-.01a3.687,3.687,0,0,1,3.565.157l.7.394,6.449-6.238-1.488,1.455c-1.43,1.4-2.78,2.714-4.145,4.073l-.026.028a1.607,1.607,0,0,0-.231,1.665l.012.024a3.1,3.1,0,0,1,.308,1.942c-.11.427-.259.857-.417,1.312l0,.011c-.076.218-.152.439-.226.664l-.5,1.515,1.6-.117c.2-.015.4-.026.6-.037l.029,0c.48-.028.977-.057,1.485-.13,1.162-.165,2.344-.35,3.387-.513.707-.112,1.415-.221,2.115-.328a1.5,1.5,0,0,0,1.347-1.619c-.008-.186-.005-.373,0-.572m-18.39.94c-1.5-.172-3.02-.363-4.32-.528a10.075,10.075,0,0,1-1.018-.186,10.536,10.536,0,0,1,1.69-6.666l3.715,4.008a5.317,5.317,0,0,0-.068,3.372m-5.687-.414v0Zm11.147-6.363,0-.377a5.954,5.954,0,0,0-2.146.415c-1.185-1.134-2.345-2.254-3.706-3.571l-.2-.192a10.767,10.767,0,0,1,12.178.061l-3.871,3.753a5.923,5.923,0,0,0-2.248-.464l0,.377Zm9.088-.561.078-.077a10.434,10.434,0,0,1,1.615,4.641,13.187,13.187,0,0,1,.022,1.467c-.006.167-.008.342-.009.518l-2.13.329c-.945.147-1.921.3-2.89.437-.124.018-.251.033-.374.045.064-.2.126-.417.182-.634l0-.018a5.079,5.079,0,0,0-.295-2.982c1.262-1.252,2.549-2.51,3.8-3.727m-4.248,3.645,0,0h0" transform="translate(-110.158 -346.934)" fill="#002e6d"/>
      <path id="Path_28442" data-name="Path 28442" d="M225.8,485.276a3.393,3.393,0,0,0-3.373-3.415h-.046a3.421,3.421,0,0,0-3.4,3.343,3.365,3.365,0,0,0,.976,2.395,3.416,3.416,0,0,0,2.411,1.037h.02v.009h.023a3.393,3.393,0,0,0,3.392-3.37m-4.684-.032A1.272,1.272,0,0,1,222.384,484h.033a1.239,1.239,0,0,1,.891.38,1.234,1.234,0,0,1-.036,1.745l-.009.009a1.241,1.241,0,0,1-.873.376,1.289,1.289,0,0,1-.908-.4,1.227,1.227,0,0,1-.363-.867m1.272,3.025Z" transform="translate(-197.283 -434.117)" fill="#002e6d"/>
      <path id="Path_28443" data-name="Path 28443" d="M395.947,75.293a.66.66,0,0,0,.467.2h.033a.789.789,0,0,0,.593-.357l.02-.03a12.889,12.889,0,0,1,3.119-3.443,1.352,1.352,0,0,0,.578-.753.762.762,0,0,0-.116-.592l-.007-.01a5.5,5.5,0,0,0-.728-.831.874.874,0,0,0-1.215.089,10.191,10.191,0,0,0-2.44,2.456l-.684-.616a.95.95,0,0,0-.623-.34.734.734,0,0,0-.569.219,5.869,5.869,0,0,0-.479.471l.266.241-.28-.224a.973.973,0,0,0-.041,1.364c.286.287,2.034,2.085,2.106,2.159" transform="translate(-354.584 -62.41)" fill="#ffd100"/>
      <path id="Path_28444" data-name="Path 28444" d="M395.947,162.088a.66.66,0,0,0,.467.2h.033a.789.789,0,0,0,.593-.357l.02-.03a12.886,12.886,0,0,1,3.119-3.444,1.353,1.353,0,0,0,.578-.754.76.76,0,0,0-.116-.592l-.007-.01a5.5,5.5,0,0,0-.728-.831.874.874,0,0,0-1.215.089,10.194,10.194,0,0,0-2.44,2.456l-.684-.616a.95.95,0,0,0-.623-.34.734.734,0,0,0-.569.219,5.907,5.907,0,0,0-.479.471l.274.248-.288-.231a.973.973,0,0,0-.041,1.364c.286.287,2.034,2.085,2.106,2.159" transform="translate(-354.584 -140.605)" fill="#ffd100"/>
      <path id="Path_28445" data-name="Path 28445" d="M405.5,244.466a.829.829,0,0,0-.237-.6c-.071-.088-.381-.476-.59-.731a.684.684,0,0,0-.482-.254,1.166,1.166,0,0,0-.773.311l-.974.851c-.3-.259-.713-.626-.9-.834a.818.818,0,0,0-.655-.317.711.711,0,0,0-.49.236,6.217,6.217,0,0,0-.68.707.824.824,0,0,0,0,1.147l.946.925c-.226.278-.567.7-.823,1.05-.6.811-.219,1.211-.137,1.283l.036.028c.024.016.584.406.988.635a.854.854,0,0,0,.686.107.714.714,0,0,0,.387-.292l.705-.864c.2.262.45.591.581.79a.772.772,0,0,0,1.147.273c.005,0,.509-.372.846-.587a.713.713,0,0,0,.2-1.124l-1.03-1.316c.261-.243.533-.476.813-.694a.961.961,0,0,0,.436-.727" transform="translate(-359.905 -218.81)" fill="#ffd100"/>
      <rect id="Rectangle_22303" data-name="Rectangle 22303" width="16.145" height="2.736" transform="translate(47.186 34.698)" fill="#ffd100"/>
      <rect id="Rectangle_22304" data-name="Rectangle 22304" width="16.145" height="2.736" transform="translate(47.186 25.968)" fill="#ffd100"/>
      <rect id="Rectangle_22305" data-name="Rectangle 22305" width="16.145" height="2.736" transform="translate(47.186 17.484)" fill="#ffd100"/>
      <rect id="Rectangle_22306" data-name="Rectangle 22306" width="16.145" height="2.736" transform="translate(47.186 8.788)" fill="#ffd100"/>
      <path id="Path_28446" data-name="Path 28446" d="M362.264,0H335.924a5.623,5.623,0,0,0-5.3,3.781,13.886,13.886,0,0,1,2.393,2.2V5.6a2.907,2.907,0,0,1,2.9-2.9h26.34a2.907,2.907,0,0,1,2.9,2.9V40.593a2.907,2.907,0,0,1-2.9,2.9H347.308a19.547,19.547,0,0,1,.534,2.7h14.422a5.621,5.621,0,0,0,5.6-5.6V5.6a5.621,5.621,0,0,0-5.6-5.6" transform="translate(-297.869)" fill="#ffd100"/>
      <path id="Path_28447" data-name="Path 28447" d="M49.974,302.36a19.563,19.563,0,0,0-.534-2.7c-.089-.326-.185-.65-.291-.971a19.623,19.623,0,0,0-4.12-7.038c-.169-.186-.341-.369-.517-.548l-.014-.014q-.676-.617-1.39-1.189a29.217,29.217,0,0,0-7.956-4.536q-1.327-.5-2.7-.87c-.143-.038-.286-.078-.429-.114l-.017,0a2.014,2.014,0,0,0-1.586.344,9.362,9.362,0,0,1-10.918-.011l-.017-.012a2.182,2.182,0,0,0-1.684-.277,29.644,29.644,0,0,0-8.106,3.506,19.847,19.847,0,0,0-7.731,8.2l-.009.018a22.222,22.222,0,0,0-1.847,7.4,12.409,12.409,0,0,0,.263,4.622v.007A4.117,4.117,0,0,0,5.122,311.5a19.368,19.368,0,0,0,5.4-1.293,4.921,4.921,0,0,0,3.031-5.661,5.05,5.05,0,0,0-1.648-2.808,14.382,14.382,0,0,1,7.963-7.8,14.23,14.23,0,0,1,10.961.189,14.541,14.541,0,0,1,1.619.828,14.159,14.159,0,0,1,4.725,4.565,14.465,14.465,0,0,1,1.2,2.3,4.8,4.8,0,0,0-1.662,4.792,4.614,4.614,0,0,0,3.189,3.738,34.025,34.025,0,0,0,5.02,1.185,5.381,5.381,0,0,0,.8.065v0h.014a4.053,4.053,0,0,0,3.957-3.119,8.184,8.184,0,0,0,.247-.918l0-.024a19.562,19.562,0,0,0,.036-5.183m-2.131,4.791a5.992,5.992,0,0,1-.183.675l-.013.053q-.01.053-.022.105a1.967,1.967,0,0,1-2.369,1.459l-.028-.006a31.93,31.93,0,0,1-4.7-1.118,2.512,2.512,0,0,1-1.731-2.067l-.008-.041a2.694,2.694,0,0,1,1.037-2.828,1.682,1.682,0,0,0,.56-2.227q-.308-.771-.687-1.5a16.385,16.385,0,0,0-12.655-8.72,15.124,15.124,0,0,0-2.1-.149v-.01A16.37,16.37,0,0,0,9.826,301.189c-.048.126-.087.248-.124.365l-.326,1.009.662.456.02.013a3.017,3.017,0,0,1,1.4,1.967,2.793,2.793,0,0,1-1.69,3.221,17.052,17.052,0,0,1-4.826,1.162l-.05.008a2.031,2.031,0,0,1-.2.036,2.009,2.009,0,0,1-2.242-1.741l-.008-.044a10.171,10.171,0,0,1-.209-3.853l0-.024a20.24,20.24,0,0,1,1.661-6.7,17.766,17.766,0,0,1,6.927-7.31l.01-.006a27.52,27.52,0,0,1,7.487-3.242h.011a11.7,11.7,0,0,0,6.643,2.107h.013a11.55,11.55,0,0,0,6.639-2.126q.415.107.826.227a27.047,27.047,0,0,1,10.585,5.934,17.309,17.309,0,0,1,4.807,14.5" transform="translate(0 -256.162)" fill="#002e6d"/>
      <path id="Path_28448" data-name="Path 28448" d="M139.792,17.616a13.875,13.875,0,0,0-2.393-2.2,13.092,13.092,0,0,0-7.686-2.5c-7.48,0-13.565,6.357-13.565,14.171s6.085,14.171,13.565,14.171a13.074,13.074,0,0,0,7.377-2.284,13.853,13.853,0,0,0,2.7-2.412,14.616,14.616,0,0,0,0-18.949M129.713,39.279c-6.387,0-11.582-5.468-11.582-12.188s5.2-12.188,11.582-12.188S141.3,20.37,141.3,27.091s-5.2,12.188-11.582,12.188" transform="translate(-104.64 -11.64)" fill="#002e6d"/>
    </g>
  </g>
</svg>
