<svg xmlns="http://www.w3.org/2000/svg" xmlns:xlink="http://www.w3.org/1999/xlink" width="24" height="24" viewBox="0 0 24 24">
  <defs>
    <clipPath id="clip-path">
      <rect id="Rectangle_814" data-name="Rectangle 814" width="24" height="24" transform="translate(-2 -5.651)" fill="#002e6d" stroke="#002e6d" stroke-width="1.2"/>
    </clipPath>
    <clipPath id="clip-path-2">
      <rect id="Rectangle_22270" data-name="Rectangle 22270" width="10.9" height="7.604" transform="translate(0)" fill="#002e6d" stroke="#707070" stroke-width="0.3"/>
    </clipPath>
  </defs>
  <g id="Group_21562" data-name="Group 21562" transform="translate(2 5.651)">
    <g id="Group_14828" data-name="Group 14828" clip-path="url(#clip-path)">
      <path id="Path_6067" data-name="Path 6067" d="M20.264,13.525H.707A.707.707,0,0,1,0,12.818V.707A.708.708,0,0,1,.707,0H20.264a.708.708,0,0,1,.707.707V12.818a.708.708,0,0,1-.707.707M.707.428A.279.279,0,0,0,.428.707V12.818a.279.279,0,0,0,.279.279H20.264a.279.279,0,0,0,.279-.279V.707a.279.279,0,0,0-.279-.279Z" transform="translate(-0.222 -0.628)" fill="#002e6d" stroke="#002e6d" stroke-width="1.2"/>
      <path id="Path_6070" data-name="Path 6070" d="M308.541,70.95H302.5a.214.214,0,1,1,0-.428h6.045a.214.214,0,1,1,0,.428" transform="translate(-289.798 -68.186)" fill="#002e6d" stroke="#002e6d" stroke-width="1.2"/>
      <path id="Path_6071" data-name="Path 6071" d="M308.541,156.22H302.5a.214.214,0,1,1,0-.428h6.045a.214.214,0,1,1,0,.428" transform="translate(-289.798 -149.872)" fill="#002e6d" stroke="#002e6d" stroke-width="1.2"/>
      <path id="Path_6072" data-name="Path 6072" d="M308.541,241.49H302.5a.214.214,0,1,1,0-.428h6.045a.214.214,0,1,1,0,.428" transform="translate(-289.798 -231.557)" fill="#002e6d" stroke="#002e6d" stroke-width="1.2"/>
      <g id="Group_18196" data-name="Group 18196" transform="translate(0.945 2.336)">
        <g id="Group_18149" data-name="Group 18149" clip-path="url(#clip-path-2)">
          <g id="Group_18184" data-name="Group 18184" transform="translate(0.4 0.293)">
            <path id="Path_5784" data-name="Path 5784" d="M-2485.85,6643.4h-1.375a.207.207,0,0,0-.206.207v.229h-.843a.115.115,0,0,0,0,.229h.843v.16a.207.207,0,0,0,.206.206h1.375a.207.207,0,0,0,.206-.206v-.618A.207.207,0,0,0-2485.85,6643.4Zm-.023.8h-1.33v-.572h1.329v.572Z" transform="translate(2491.355 -6637.601)" fill="#002e6d" stroke="#002e6d" stroke-width="0.3"/>
            <path id="Path_5785" data-name="Path 5785" d="M-2537.312,6644.4a.341.341,0,0,0-.34.341.34.34,0,0,0,.34.34.34.34,0,0,0,.341-.34A.341.341,0,0,0-2537.312,6644.4Zm0,.453a.112.112,0,0,1-.111-.112.112.112,0,0,1,.111-.111.112.112,0,0,1,.112.111A.112.112,0,0,1-2537.312,6644.85Z" transform="translate(2539.303 -6638.568)" fill="#002e6d" stroke="#002e6d" stroke-width="0.3"/>
            <path id="Path_5786" data-name="Path 5786" d="M-2555.832,6625.381a.848.848,0,0,0-.849.848.849.849,0,0,0,.849.85.849.849,0,0,0,.849-.85A.848.848,0,0,0-2555.832,6625.381Zm0,1.468a.62.62,0,0,1-.62-.62.62.62,0,0,1,.62-.621.621.621,0,0,1,.62.621A.62.62,0,0,1-2555.832,6626.85Z" transform="translate(2557.823 -6620.062)" fill="#002e6d" stroke="#002e6d" stroke-width="0.3"/>
            <path id="Path_5787" data-name="Path 5787" d="M-2375.955,6625.381a.848.848,0,0,0-.849.848.849.849,0,0,0,.849.85.849.849,0,0,0,.848-.85A.848.848,0,0,0-2375.955,6625.381Zm0,1.468a.62.62,0,0,1-.62-.62.62.62,0,0,1,.62-.621.621.621,0,0,1,.62.621A.62.62,0,0,1-2375.955,6626.85Z" transform="translate(2382.752 -6620.062)" fill="#002e6d" stroke="#002e6d" stroke-width="0.3"/>
            <path id="Path_5788" data-name="Path 5788" d="M-2494.622,6448.085h-1.716a.114.114,0,0,0,0,.229h1.716A.114.114,0,0,0-2494.622,6448.085Z" transform="translate(2499.203 -6447.501)" fill="#002e6d" stroke="#002e6d" stroke-width="0.3"/>
            <path id="Path_5789" data-name="Path 5789" d="M-2589.753,6431.669a1.269,1.269,0,0,0-1.027-.523,1.272,1.272,0,0,0-.933.4,1.265,1.265,0,0,0-.927-.4,1.274,1.274,0,0,0-.948.421h-2.833a.538.538,0,0,0-.07-.173h1.272a.425.425,0,0,0,.48-.409v-3.2c0-.3-.25-.409-.48-.409h-3.147l.729-.728a.563.563,0,0,1,.386-.165h2.4a.115.115,0,0,0,0-.229h-2.411a.782.782,0,0,0-.542.232l-.977.976a.364.364,0,0,0-.165.322v.39a.118.118,0,0,0,.1.113v1.083a.118.118,0,0,0-.1.113v.48a.11.11,0,0,0,.114.114v.967a.11.11,0,0,0-.114.114v.411h-.293a.206.206,0,0,0-.2.207v.742a.206.206,0,0,0,.055.141.177.177,0,0,0,.121.063l.724,0a.115.115,0,1,0,0-.229h-.671v-.7h.82a.119.119,0,0,0,.125-.122.273.273,0,0,1,.251-.28h1.124a.272.272,0,0,1,.251.28l0,.009a.11.11,0,0,0,.114.114h2.981a.117.117,0,0,0,.093-.041,1.047,1.047,0,0,1,.807-.38,1.043,1.043,0,0,1,.827.41.133.133,0,0,0,.018.022.1.1,0,0,0,.083.038.1.1,0,0,0,.083-.038.083.083,0,0,0,.017-.022,1.046,1.046,0,0,1,.833-.41,1.043,1.043,0,0,1,.844.431,1.05,1.05,0,0,1,.2.617.114.114,0,0,0,.229,0A1.275,1.275,0,0,0-2589.753,6431.669Zm-8.267-.5a.5.5,0,0,0-.462.4h-.231v-.288a.11.11,0,0,0,.113-.115v-1.2a.109.109,0,0,0-.113-.114v-.251h1.844a.207.207,0,0,0,.206-.205v-1.126a.207.207,0,0,0-.206-.206h-1.844v-.276a.153.153,0,0,1,.064-.133l.011-.009a.344.344,0,0,1,.176-.038h3.241c.175,0,.252.072.252.18v3.2c0,.108-.077.18-.252.18Zm-.6-1.8v-1.082h1.724v1.081Z" transform="translate(2599.439 -6426.25)" fill="#002e6d" stroke="#002e6d" stroke-width="0.3"/>
            <path id="Path_5790" data-name="Path 5790" d="M-2357.427,6644.4a.34.34,0,0,0-.34.341.339.339,0,0,0,.34.34.34.34,0,0,0,.34-.34A.341.341,0,0,0-2357.427,6644.4Zm0,.453a.112.112,0,0,1-.111-.112.112.112,0,0,1,.111-.111.112.112,0,0,1,.112.111A.112.112,0,0,1-2357.427,6644.85Z" transform="translate(2364.223 -6638.568)" fill="#002e6d" stroke="#002e6d" stroke-width="0.3"/>
            <path id="Path_5791" data-name="Path 5791" d="M-2287.8,6644.4a.341.341,0,0,0-.34.341.34.34,0,0,0,.34.34.34.34,0,0,0,.34-.34A.341.341,0,0,0-2287.8,6644.4Zm0,.453a.112.112,0,0,1-.112-.112.112.112,0,0,1,.112-.111.112.112,0,0,1,.112.111A.112.112,0,0,1-2287.8,6644.85Z" transform="translate(2296.461 -6638.568)" fill="#002e6d" stroke="#002e6d" stroke-width="0.3"/>
            <path id="Path_5792" data-name="Path 5792" d="M-2306.316,6625.381a.848.848,0,0,0-.849.848.849.849,0,0,0,.849.85.849.849,0,0,0,.849-.85A.848.848,0,0,0-2306.316,6625.381Zm0,1.468a.62.62,0,0,1-.62-.62.621.621,0,0,1,.62-.621.62.62,0,0,1,.62.621A.62.62,0,0,1-2306.316,6626.85Z" transform="translate(2314.973 -6620.062)" fill="#002e6d" stroke="#002e6d" stroke-width="0.3"/>
          </g>
        </g>
      </g>
    </g>
  </g>
</svg>
