<svg id="Group_20507" data-name="Group 20507" xmlns="http://www.w3.org/2000/svg" width="24" height="24" viewBox="0 0 24 24">
  <g id="Group_20497" data-name="Group 20497">
    <rect id="Rectangle_22738" data-name="Rectangle 22738" width="24" height="24" fill="#d2cccc" opacity="0"/>
    <g id="Document_Add" data-name="Document Add" transform="translate(1 1)">
      <path id="Path_30164" data-name="Path 30164" d="M18.8,8.143l.51-.51a2.163,2.163,0,1,1,3.059,3.059l-.51.51M18.8,8.143A3.6,3.6,0,0,0,21.857,11.2M18.8,8.143,14.111,12.83a7.52,7.52,0,0,0-.613.651,3.612,3.612,0,0,0-.412.666,7.508,7.508,0,0,0-.308.839l-.455,1.364-.147.441m9.68-5.589L17.17,15.889a7.52,7.52,0,0,1-.651.613,3.613,3.613,0,0,1-.666.412,7.509,7.509,0,0,1-.839.308l-1.364.455-.441.147m0,0-.441.147a.583.583,0,0,1-.738-.738l.147-.441m1.032,1.032-1.032-1.032" transform="translate(-2.1 -1.5)" fill="none" stroke="#f9f9f9" stroke-width="1.5"/>
      <path id="Path_30165" data-name="Path 30165" d="M8,13h2.75" transform="translate(-2.5 -0.9)" fill="none" stroke="#f9f9f9" stroke-linecap="round" stroke-width="1.5"/>
      <path id="Path_30166" data-name="Path 30166" d="M8,9h7.15" transform="translate(-2.5 -1.3)" fill="none" stroke="#f9f9f9" stroke-linecap="round" stroke-width="1.5"/>
      <path id="Path_30167" data-name="Path 30167" d="M8,17H9.65" transform="translate(-2.5 -0.5)" fill="none" stroke="#f9f9f9" stroke-linecap="round" stroke-width="1.5"/>
      <path id="Path_30168" data-name="Path 30168" d="M21.511,3.289C20.223,2,18.148,2,14,2H11.8C7.652,2,5.577,2,4.289,3.289S3,6.652,3,10.8v4.4c0,4.148,0,6.223,1.289,7.511S7.652,24,11.8,24H14c4.148,0,6.223,0,7.511-1.289,1.037-1.037,1.24-2.584,1.279-5.311" transform="translate(-3 -2)" fill="none" stroke="#f9f9f9" stroke-linecap="round" stroke-width="1.5"/>
    </g>
  </g>
</svg>
