<svg xmlns="http://www.w3.org/2000/svg" width="27.341" height="41.2" viewBox="0 0 27.341 41.2">
  <path id="Path_29573" data-name="Path 29573" d="M120.853,13.662a13.684,13.684,0,0,1,27.054-2.9,13.432,13.432,0,0,1-.675,7.641A76.386,76.386,0,0,1,141.37,30.44c-2.041,3.575-4.246,7.048-6.533,10.472-.2.292-.293.444-.56.044a141.166,141.166,0,0,1-10.95-18.915,26.574,26.574,0,0,1-2.338-6.953c-.086-.539-.107-1.085-.135-1.427m6.637-.122a7.056,7.056,0,1,0,7.081-7,7.036,7.036,0,0,0-7.081,7" transform="translate(-120.853 0)" fill="#ffc400" fill-rule="evenodd"/>
</svg>
