<svg id="Group_20504" data-name="Group 20504" xmlns="http://www.w3.org/2000/svg" width="24" height="24" viewBox="0 0 24 24">
  <g id="Group_20495" data-name="Group 20495">
    <rect id="Rectangle_22736" data-name="Rectangle 22736" width="24" height="24" fill="#d2cccc" opacity="0"/>
    <g id="Square_Double_Alt_Arrow_Down" data-name="Square Double Alt Arrow Down" transform="translate(1 1)">
      <path id="Path_30146" data-name="Path 30146" d="M2,13C2,7.815,2,5.222,3.611,3.611S7.815,2,13,2s7.778,0,9.389,1.611S24,7.815,24,13s0,7.778-1.611,9.389S18.185,24,13,24s-7.778,0-9.389-1.611S2,18.185,2,13Z" transform="translate(-2 -2)" fill="none" stroke="#f9f9f9" stroke-width="1.5"/>
      <path id="Path_30147" data-name="Path 30147" d="M9,8.5l3.3,3.3,3.3-3.3" transform="translate(-1.3 -1.35)" fill="none" stroke="#f9f9f9" stroke-linecap="round" stroke-linejoin="round" stroke-width="1.5"/>
      <path id="Path_30148" data-name="Path 30148" d="M9,12.5l3.3,3.3,3.3-3.3" transform="translate(-1.3 -0.95)" fill="none" stroke="#f9f9f9" stroke-linecap="round" stroke-linejoin="round" stroke-width="1.5"/>
    </g>
  </g>
</svg>
