<svg xmlns="http://www.w3.org/2000/svg" width="24" height="24" viewBox="0 0 24 24">
  <g id="Group_21671" data-name="Group 21671" transform="translate(14268 12483)">
    <g id="Rectangle_22852" data-name="Rectangle 22852" transform="translate(-14268 -12483)" fill="#fff" stroke="#707070" stroke-width="1" opacity="0">
      <rect width="24" height="24" stroke="none"/>
      <rect x="0.5" y="0.5" width="23" height="23" fill="none"/>
    </g>
    <g id="gear" transform="translate(-14265 -12480)">
      <path id="Path_30384" data-name="Path 30384" d="M15,12a3,3,0,1,1-3-3A3,3,0,0,1,15,12Z" transform="translate(-3 -3)" fill="none" stroke="#002e6d" stroke-linecap="round" stroke-linejoin="round" stroke-width="2"/>
      <path id="Path_30385" data-name="Path 30385" d="M12.9,3.06A3.408,3.408,0,0,0,12,3a3.408,3.408,0,0,0-.9.06,1.5,1.5,0,0,0-.761.515,3.407,3.407,0,0,0-.392.818,1.265,1.265,0,0,1-1.574.73L7.8,4.933a3.358,3.358,0,0,0-.806-.214,1.5,1.5,0,0,0-.835.2,3.358,3.358,0,0,0-.625.552,3.393,3.393,0,0,0-.583.664,1.5,1.5,0,0,0-.181.884,3.393,3.393,0,0,0,.274.84,1.447,1.447,0,0,1-.6,1.779L4.165,9.8a3.31,3.31,0,0,0-.792.558,1.5,1.5,0,0,0-.3.534A3.349,3.349,0,0,0,3,11.866a3.441,3.441,0,0,0,.095,1.142,1.5,1.5,0,0,0,.4.586,3.4,3.4,0,0,0,1.017.509,1.132,1.132,0,0,1,.654,1.409l-.215.645a3.354,3.354,0,0,0-.23.89,1.5,1.5,0,0,0,.179.758,3.352,3.352,0,0,0,.6.693,3.356,3.356,0,0,0,.693.6,1.5,1.5,0,0,0,.758.179,3.357,3.357,0,0,0,.89-.23l.527-.176a1.265,1.265,0,0,1,1.574.73,3.408,3.408,0,0,0,.392.818,1.5,1.5,0,0,0,.761.515A3.411,3.411,0,0,0,12,21a3.411,3.411,0,0,0,.9-.06,1.5,1.5,0,0,0,.761-.515,3.409,3.409,0,0,0,.392-.818,1.265,1.265,0,0,1,1.574-.73l.527.176a3.358,3.358,0,0,0,.89.23,1.5,1.5,0,0,0,.758-.179,3.356,3.356,0,0,0,.693-.6,3.356,3.356,0,0,0,.6-.693,1.5,1.5,0,0,0,.179-.758,3.358,3.358,0,0,0-.23-.89l-.215-.645a1.133,1.133,0,0,1,.654-1.41,3.4,3.4,0,0,0,1.017-.509,1.5,1.5,0,0,0,.4-.586A3.442,3.442,0,0,0,21,11.866a3.349,3.349,0,0,0-.071-.973,1.5,1.5,0,0,0-.3-.534,3.312,3.312,0,0,0-.792-.558l-.278-.167a1.447,1.447,0,0,1-.6-1.779,3.394,3.394,0,0,0,.274-.84,1.5,1.5,0,0,0-.181-.884,3.392,3.392,0,0,0-.583-.664,3.361,3.361,0,0,0-.625-.552,1.5,1.5,0,0,0-.835-.2,3.358,3.358,0,0,0-.806.214l-.57.19a1.265,1.265,0,0,1-1.574-.73,3.407,3.407,0,0,0-.392-.818A1.5,1.5,0,0,0,12.9,3.06Z" transform="translate(-3 -3)" fill="none" stroke="#002e6d" stroke-linecap="round" stroke-linejoin="round" stroke-width="2"/>
    </g>
  </g>
</svg>
