<svg xmlns="http://www.w3.org/2000/svg" xmlns:xlink="http://www.w3.org/1999/xlink" width="70" height="70" viewBox="0 0 70 70">
  <defs>
    <clipPath id="vehicle_inventory_header_icon">
      <rect id="Rectangle_22307" data-name="Rectangle 22307" width="70" height="70" transform="translate(0 -7)" fill="none"/>
    </clipPath>
    <clipPath id="clip-path-2">
      <rect id="Rectangle_22387" data-name="Rectangle 22387" width="70" height="45.826" fill="none"/>
    </clipPath>
  </defs>
  <g id="Group_18248" data-name="Group 18248" transform="translate(0 7)">
    <g id="Group_18247" data-name="Group 18247" clip-path="url(#vehicle_inventory_header_icon)">
      <g id="Group_18563" data-name="Group 18563" transform="translate(297 252)">
        <g id="Group_18564" data-name="Group 18564" transform="translate(-297 -247)">
          <g id="Group_18563-2" data-name="Group 18563" clip-path="url(#clip-path-2)">
            <path id="Path_28644" data-name="Path 28644" d="M531.93,102.2a.545.545,0,0,0,.388.165h.03a.658.658,0,0,0,.491-.3l.014-.021a11.585,11.585,0,0,1,2.807-3.095,1.16,1.16,0,0,0,.5-.646.639.639,0,0,0-.1-.5,4.888,4.888,0,0,0-.646-.742c-.151-.153-.538-.315-1.026.083a9.082,9.082,0,0,0-2.206,2.232l-.651-.589a.8.8,0,0,0-.528-.292.6.6,0,0,0-.473.185,5.238,5.238,0,0,0-.426.418l-.013.015a.827.827,0,0,0-.04,1.157c.261.261,1.873,1.919,1.885,1.932" transform="translate(-487.5 -89.151)" fill="#ffd100"/>
            <path id="Path_28645" data-name="Path 28645" d="M532.318,198.75h.031a.657.657,0,0,0,.491-.3l.015-.021a11.585,11.585,0,0,1,2.806-3.1,1.16,1.16,0,0,0,.5-.646.639.639,0,0,0-.1-.5,4.891,4.891,0,0,0-.646-.742c-.151-.153-.538-.315-1.026.083a9.081,9.081,0,0,0-2.206,2.233l-.655-.589a.8.8,0,0,0-.528-.292.609.609,0,0,0-.473.185,5.21,5.21,0,0,0-.426.418l.227.206-.235-.188a.827.827,0,0,0-.04,1.157c.26.261,1.873,1.919,1.885,1.932a.545.545,0,0,0,.388.165" transform="translate(-487.5 -177.832)" fill="#ffd100"/>
            <path id="Path_28646" data-name="Path 28646" d="M538.029,295.134a.587.587,0,0,0,.319-.244l.673-.821c.187.243.434.569.562.762a.644.644,0,0,0,.482.346.644.644,0,0,0,.093.007.635.635,0,0,0,.382-.126s.458-.335.763-.528a.591.591,0,0,0,.169-.933l-.951-1.216c.245-.231.5-.451.762-.655a.814.814,0,0,0,.373-.615.7.7,0,0,0-.2-.51c-.062-.078-.341-.426-.529-.655a.557.557,0,0,0-.4-.21.992.992,0,0,0-.655.265l-.908.793a11.353,11.353,0,0,1-.839-.776.688.688,0,0,0-.549-.268.589.589,0,0,0-.407.2,5.508,5.508,0,0,0-.606.631.69.69,0,0,0,0,.963l.879.859c-.2.246-.523.648-.763.971-.517.695-.2,1.027-.128,1.087l.025.019c.021.015.516.362.88.567a.723.723,0,0,0,.58.09" transform="translate(-493.514 -266.587)" fill="#ffd100"/>
            <rect id="Rectangle_22384" data-name="Rectangle 22384" width="14.365" height="2.356" transform="translate(49.662 24.852)" fill="#ffd100"/>
            <rect id="Rectangle_22385" data-name="Rectangle 22385" width="14.365" height="2.356" transform="translate(49.662 17.252)" fill="#ffd100"/>
            <rect id="Rectangle_22386" data-name="Rectangle 22386" width="14.365" height="2.356" transform="translate(49.662 9.465)" fill="#ffd100"/>
            <path id="Path_28647" data-name="Path 28647" d="M484.993,19.956H461.4a4.986,4.986,0,0,0-4.972,4.973V52.947h1.64a8.363,8.363,0,0,1,.684-.67V24.929a2.652,2.652,0,0,1,2.649-2.648h23.591a2.652,2.652,0,0,1,2.649,2.649V56.266a2.652,2.652,0,0,1-2.649,2.649h-.332a.838.838,0,0,1-.764.515h-.005a.836.836,0,0,1-.771-.515h-1.161a5.573,5.573,0,0,1-.662,2.324h3.7a4.986,4.986,0,0,0,4.972-4.973V24.928a4.986,4.986,0,0,0-4.972-4.972" transform="translate(-419.965 -18.362)" fill="#ffd100"/>
            <path id="Path_28648" data-name="Path 28648" d="M136.707,474.543h0a2.3,2.3,0,0,0,0,4.608h0a2.3,2.3,0,0,0,0-4.608m0,2.941h-.036a.666.666,0,1,1,.036,0" transform="translate(-123.666 -436.632)" fill="#002e6d"/>
            <path id="Path_28649" data-name="Path 28649" d="M235.709,47.527H224.546a.833.833,0,0,0-.064,1.664h11.227a.832.832,0,0,0,.8-.863.836.836,0,0,0-.8-.8" transform="translate(-205.812 -43.729)" fill="#002e6d"/>
            <path id="Path_28650" data-name="Path 28650" d="M258.647,472.451a1.422,1.422,0,0,0-.564-.12h-8.944a1.434,1.434,0,0,0-1.43,1.429v1.4h-5.387a.843.843,0,0,0-.594.234.833.833,0,0,0,.567,1.432h5.414v.956a1.43,1.43,0,0,0,1.428,1.425h8.946a1.43,1.43,0,0,0,1.428-1.425v-4.014a1.441,1.441,0,0,0-.864-1.317m-.8,5.088h-8.467V474h8.467Z" transform="translate(-222.183 -434.596)" fill="#002e6d"/>
            <path id="Path_28651" data-name="Path 28651" d="M98.614,433.151h0a5.611,5.611,0,1,0,5.611,5.608,5.616,5.616,0,0,0-5.611-5.608m3.942,5.608a3.94,3.94,0,0,1-3.884,3.94h-.059a3.941,3.941,0,1,1,3.943-3.941Z" transform="translate(-85.574 -398.547)" fill="#002e6d"/>
            <path id="Path_28652" data-name="Path 28652" d="M495.468,438.759a5.616,5.616,0,0,0-5.608-5.608h0a5.612,5.612,0,0,0-5.394,4.067,5.609,5.609,0,1,0,10.992,1.881c.007-.112.011-.226.011-.34m-5.548,3.94h-.065a3.912,3.912,0,0,1-2.782-1.151c-.041-.041-.081-.084-.121-.126a3.91,3.91,0,0,1-1.033-2.553c0-.036,0-.073,0-.109a3.942,3.942,0,1,1,7.885,0c0,.114-.006.228-.016.34a3.948,3.948,0,0,1-3.867,3.6" transform="translate(-445.563 -398.547)" fill="#002e6d"/>
            <path id="Path_28653" data-name="Path 28653" d="M38.788,36.194a.834.834,0,0,0,.336-.242,6.7,6.7,0,0,1,10.484.186.951.951,0,0,0,.12.153.808.808,0,0,0,1.211,0,.676.676,0,0,0,.121-.156,6.745,6.745,0,0,1,5.32-2.623H56.4a6.7,6.7,0,0,1,6.69,6.722.836.836,0,0,0,.835.828h.006a.838.838,0,0,0,.764-.515.824.824,0,0,0,.065-.314A8.366,8.366,0,0,0,56.4,31.845h-.016a8.4,8.4,0,0,0-6.049,2.585,8.367,8.367,0,0,0-6.028-2.585H44.3a8.39,8.39,0,0,0-6.194,2.74H19.79a3.543,3.543,0,0,0-.373-.956h8.117c1.483,0,3.214-.719,3.214-2.747V10.04c0-2.028-1.731-2.748-3.214-2.748H7.281l4.59-4.58a3.543,3.543,0,0,1,2.442-1.044H29.957a.834.834,0,0,0,0-1.668H14.273a5.2,5.2,0,0,0-3.585,1.536L4.338,7.875a2.487,2.487,0,0,0-1.1,2.166V12.58a.863.863,0,0,0,.629.8v6.906a.864.864,0,0,0-.629.806v3.122a.8.8,0,0,0,.738.834v6.111a.81.81,0,0,0-.738.782c0,.017,0,.033,0,.048v2.582H1.417A1.435,1.435,0,0,0,0,36.006v4.83a1.436,1.436,0,0,0,.38.973,1.247,1.247,0,0,0,.852.44l4.706.013h.033A.833.833,0,0,0,6,40.6c-.022,0-.043,0-.061,0H1.665V36.245H6.9a.857.857,0,0,0,.908-.8c0-.027,0-.055,0-.081A1.7,1.7,0,0,1,9.358,33.63h7.3a1.687,1.687,0,0,1,1.553,1.734v.014l.015.052a.81.81,0,0,0,.779.824H38.445a.833.833,0,0,0,.343-.06M9.318,31.964h0a3.289,3.289,0,0,0-3.072,2.613H4.9v-1.7a.8.8,0,0,0,.736-.775c0-.021,0-.041,0-.058V24.226A.8.8,0,0,0,4.9,23.39V21.93H16.8a1.442,1.442,0,0,0,1.43-1.43V13.177a1.442,1.442,0,0,0-1.43-1.428L4.9,11.737V10.031a.906.906,0,0,1,.378-.787L5.3,9.233,5.347,9.2a2.108,2.108,0,0,1,1.1-.244H27.533c1.012,0,1.546.373,1.546,1.078V30.874c0,.891-.841,1.077-1.547,1.077Zm-3.787-11.7V13.413l11.031.007v6.85Z" transform="translate(0)" fill="#002e6d"/>
            <path id="Path_28654" data-name="Path 28654" d="M528.008,474.543h0a2.3,2.3,0,0,0-2.3,2.308,2.3,2.3,0,0,0,2.3,2.3h0a2.3,2.3,0,0,0,0-4.608m0,2.941h-.036a.689.689,0,1,1,.036,0" transform="translate(-483.707 -436.632)" fill="#002e6d"/>
            <path id="Path_28655" data-name="Path 28655" d="M679.389,474.543h0a2.3,2.3,0,0,0,0,4.608h0a2.3,2.3,0,1,0,0-4.608m0,2.941h-.033a.636.636,0,0,1-.5-.3.629.629,0,0,1-.1-.335.636.636,0,0,1,.629-.635h0a.637.637,0,0,1,.636.633v0a.638.638,0,0,1-.637.634" transform="translate(-622.993 -436.632)" fill="#002e6d"/>
            <path id="Path_28656" data-name="Path 28656" d="M646.927,438.759a5.609,5.609,0,0,0-5.609-5.608h0a5.615,5.615,0,0,0-5.608,5.608c0,.114,0,.227.011.34a5.565,5.565,0,0,0,.658,2.324,5.631,5.631,0,0,0,.972,1.3,5.609,5.609,0,0,0,9.566-3.628c.007-.112.011-.226.011-.34m-2.821,2.786a3.914,3.914,0,0,1-2.731,1.154h-.059a3.946,3.946,0,0,1-3.925-3.6c-.01-.112-.016-.225-.016-.34a3.942,3.942,0,0,1,3.942-3.943h0a3.946,3.946,0,0,1,3.942,3.94v0c0,.114-.006.227-.015.34a3.9,3.9,0,0,1-1.022,2.324c-.038.041-.076.082-.116.122" transform="translate(-584.922 -398.547)" fill="#002e6d"/>
          </g>
        </g>
      </g>
    </g>
  </g>
</svg>
